<svg class="svg-icon" style="width: 2.5em; height: 2.5em;vertical-align: middle;fill: currentColor;overflow: hidden;" viewBox="0 0 1024 1024" version="1.1" xmlns="http://www.w3.org/2000/svg"><path d="M789.904 256.006a35.337 35.337 0 0 0-26.856-4.837 35.348 35.348 0 0 0-22.293 15.745c-10.69 16.753-6.085 38.982 10.384 50.116 3.845 2.61 95.493 66.021 95.493 223.695 0 158.078-87.909 221.529-91.385 223.917-16.537 11.266-20.958 33.723-9.931 50.414a35.583 35.583 0 0 0 22.707 15.351 35.58 35.58 0 0 0 26.885-5.339c5.043-3.363 123.277-85.635 123.277-284.382 0-199.051-123.017-281.284-128.281-284.68M678.54 362.663a35.357 35.357 0 0 0-27.125-1.288 35.378 35.378 0 0 0-20.041 18.319c-8.474 17.905-1.265 39.308 16.321 48.436 2.279 1.192 55.866 29.426 55.866 109.94 0 85.97-50.116 114.463-51.758 115.397-17.756 9.141-24.891 30.84-16.023 48.732a35.783 35.783 0 0 0 48.025 16.286c3.739-1.943 91.272-47.911 91.272-180.375 0-127.906-92.615-173.577-96.536-175.481M515.796 800.753l-74.695-67.89-122.264-111.176a37.404 37.404 0 0 0-25.17-9.71l-113.979 0.034-0.37-239.827h150.05a37.423 37.423 0 0 0 32.001-9.072l79.698-72.488 74.688-67.89v578.019h0.041z m44.361-678.294c-9.147-4.028-33.273-10.792-59.747 13.295l-59.31 53.928-118.604 107.814H179.318c-41.107 0.165-74.341 33.546-74.318 74.653v239.862c0 41.16 33.346 74.655 74.318 74.655h99.932L441.1 833.803l59.383 53.963c14.976 13.597 29.165 17.403 40.334 17.403 8.621 0 15.494-2.279 19.454-4.034 9.112-4.029 30.246-17.25 30.246-52.99v-672.84c0-24.685-11.35-44.406-30.36-52.846z m0 0"  /></svg>